<svg width="20" height="20" viewBox="0 0 19 19" fill="none" xmlns="http://www.w3.org/2000/svg">
	<path d="M0.00561523 9.49051C0.0127338 8.41561 0.181207 7.41663 0.515781 6.44613C0.847982 5.48512 1.33442 4.60716 1.96323 3.80751C2.83644 2.69938 3.91372 1.8499 5.19269 1.25905C5.91879 0.924479 6.67336 0.675328 7.46115 0.537702C7.83844 0.471262 8.22047 0.438042 8.60487 0.42855C8.81368 0.421432 9.0225 0.400076 9.22893 0.407194C9.5208 0.419059 9.81266 0.442787 10.1021 0.473635C10.9279 0.561431 11.7157 0.798717 12.4798 1.11668C13.2177 1.42515 13.9106 1.81905 14.5418 2.31498C15.6048 3.14785 16.4472 4.16344 17.0499 5.3736C17.3773 6.03088 17.6146 6.72138 17.7665 7.44036C17.8401 7.79392 17.9041 8.14985 17.9516 8.50578C18.0062 8.92577 18.0156 9.34814 17.9967 9.77289C17.9302 11.2275 17.5221 12.5847 16.8506 13.8684C16.5896 14.3691 16.2597 14.8247 15.8919 15.2542C15.5977 15.5983 15.2869 15.9233 14.9404 16.2128C14.4136 16.6542 13.856 17.0505 13.2533 17.3803C12.5391 17.7718 11.7869 18.066 10.9896 18.2369C10.6028 18.3199 10.2137 18.3793 9.81978 18.4172C9.3808 18.4576 8.93944 18.4599 8.49809 18.4315C7.67471 18.3769 6.87268 18.2155 6.09438 17.9474C5.46083 17.7291 4.86524 17.4372 4.29575 17.0861C3.6005 16.6566 2.95271 16.1654 2.39509 15.565C1.50764 14.6088 0.862219 13.5101 0.454086 12.2715C0.273749 11.7186 0.140868 11.1563 0.0601911 10.582C0.0127338 10.2 0.0079881 9.82034 0.00561523 9.49051ZM6.84895 9.0017C6.86794 9.25797 6.88217 9.49051 6.89878 9.72068C6.92014 9.99831 6.93912 10.2759 6.96285 10.5536C6.99132 10.8691 7.02217 11.1871 7.05302 11.5027C7.08861 11.8396 7.12421 12.179 7.16454 12.5159C7.16692 12.5349 7.18827 12.5586 7.20725 12.5705C7.25946 12.5966 7.31641 12.6179 7.37098 12.6393C7.8764 12.8457 8.38182 13.0498 8.88724 13.2586C9.47571 13.5007 10.0452 13.7878 10.6598 13.9634C10.6811 13.9705 10.712 13.9681 10.7286 13.9586C10.8828 13.859 11.0371 13.7593 11.1865 13.6525C11.6042 13.3464 12.017 13.0356 12.4323 12.7271C12.8025 12.4518 13.1726 12.1742 13.5404 11.8966C13.5547 11.8847 13.5665 11.8563 13.5665 11.8373C13.5452 11.5193 13.5262 11.2013 13.4953 10.8858C13.4645 10.5536 13.4265 10.2214 13.3814 9.89153C13.334 9.54746 13.277 9.20577 13.2225 8.86171C13.194 8.68849 13.156 8.51764 13.1347 8.34442C13.1228 8.25188 13.0848 8.20917 12.9994 8.17358C12.4062 7.92205 11.8154 7.66341 11.2245 7.40714C10.7642 7.20545 10.3038 7.00375 9.84588 6.79969C9.77944 6.77121 9.72486 6.7807 9.67266 6.81867C9.18622 7.16036 8.69267 7.49256 8.21572 7.84612C7.79098 8.16171 7.38285 8.50103 6.9676 8.82849C6.90116 8.88069 6.82048 8.9234 6.84895 9.0017ZM3.55542 5.79359C3.55542 5.92885 3.55779 6.06647 3.55542 6.20173C3.5483 6.71901 3.58389 7.23629 3.64084 7.75121C3.64559 7.78917 3.65982 7.81765 3.70016 7.83188C3.79745 7.8651 3.89236 7.90544 3.98965 7.93866C4.86287 8.22815 5.73608 8.51527 6.60929 8.80476C6.68997 8.83086 6.74929 8.81425 6.81336 8.76205C7.30454 8.33968 7.81945 7.94341 8.34623 7.5685C8.78995 7.2529 9.23843 6.94206 9.68452 6.62884C9.71063 6.60986 9.73198 6.59325 9.72961 6.55291C9.71537 6.36308 9.70351 6.17562 9.69164 5.9858C9.67266 5.66546 9.65368 5.3475 9.63707 5.02716C9.62283 4.78513 9.61097 4.54072 9.59673 4.29869C9.58249 4.05429 9.56825 3.80988 9.55639 3.56547C9.55164 3.47293 9.55639 3.47293 9.46859 3.44209C8.92283 3.24277 8.3842 3.02684 7.82183 2.87023C7.43268 2.76107 7.05302 2.62582 6.66861 2.50006C6.58319 2.47159 6.51912 2.46921 6.43607 2.52616C6.2937 2.62345 6.13472 2.69938 5.98286 2.78243C5.47744 3.0648 5.00998 3.39937 4.55202 3.75056C4.21982 4.00683 3.89237 4.26547 3.59576 4.56445C3.57677 4.58343 3.56016 4.61428 3.56016 4.63801C3.55305 5.02241 3.55542 5.40919 3.55542 5.79359ZM10.8971 16.5616C10.8971 16.5284 10.8994 16.4952 10.8971 16.462C10.8733 16.0847 10.8543 15.7074 10.8282 15.3325C10.8116 15.1071 10.7855 14.8817 10.7618 14.6539C10.7452 14.502 10.7262 14.3478 10.7143 14.1959C10.712 14.1532 10.7001 14.1342 10.6598 14.1223C10.4723 14.0583 10.2801 13.999 10.0974 13.923C9.14826 13.5291 8.19911 13.1305 7.25234 12.7295C7.19539 12.7057 7.15031 12.6963 7.10522 12.7437C7.08624 12.7603 7.06488 12.7769 7.04115 12.7864C6.78963 12.8861 6.54048 12.9929 6.28658 13.0783C5.61506 13.3061 4.94117 13.522 4.26728 13.7427C4.21745 13.7593 4.19135 13.7807 4.19846 13.8376C4.21745 13.9752 4.22694 14.1129 4.24592 14.2481C4.28626 14.5495 4.3266 14.8508 4.37406 15.1498C4.40965 15.3728 4.45473 15.5959 4.49982 15.8166C4.51168 15.8759 4.52592 15.94 4.55914 15.9874C4.61134 16.0586 4.68016 16.1179 4.7466 16.1796C5.07168 16.4905 5.39913 16.8013 5.72659 17.1098C5.74557 17.1288 5.7693 17.1477 5.79303 17.1572C6.47167 17.4301 7.17403 17.6199 7.9025 17.7149C7.96894 17.7243 8.04013 17.741 8.09945 17.7267C8.42216 17.6484 8.74724 17.5677 9.06521 17.4776C9.55639 17.3376 10.0333 17.1572 10.4842 16.9105C10.5815 16.8559 10.6811 16.8037 10.7832 16.7562C10.9042 16.6922 10.9042 16.6969 10.8971 16.5616ZM15.6594 13.1376C15.7235 13.0759 15.7899 13.0237 15.8421 12.9596C16.0272 12.739 16.2123 12.5183 16.3926 12.2929C16.5801 12.0556 16.7651 11.8183 16.9431 11.5739C17.0594 11.4149 17.159 11.2441 17.2634 11.0756C17.2848 11.0424 17.299 11.0068 17.3085 10.9688C17.4272 10.4041 17.4628 9.83221 17.4746 9.2556C17.477 9.16781 17.4675 9.08238 17.4414 8.99459C17.2326 8.31357 17.0024 7.64205 16.7343 6.9824C16.7248 6.95867 16.7106 6.9302 16.6916 6.91359C16.5729 6.82579 16.4543 6.73799 16.3309 6.65494C16.2621 6.60749 16.1885 6.56003 16.1174 6.51732C15.7946 6.32037 15.4696 6.12579 15.1492 5.92647C15.1018 5.898 15.0733 5.90749 15.0472 5.94783C15.014 6.00003 14.9855 6.05461 14.9499 6.10207C14.4326 6.76647 13.9153 7.43324 13.3909 8.09527C13.3269 8.17832 13.3055 8.24951 13.3269 8.35154C13.3672 8.54611 13.3981 8.74306 13.4265 8.94001C13.474 9.25323 13.5214 9.56407 13.5594 9.87729C13.5997 10.1953 13.6353 10.5132 13.6614 10.8312C13.6899 11.1563 13.7042 11.4813 13.7231 11.8064C13.7279 11.8919 13.7469 11.9583 13.8394 11.982C13.8726 11.9915 13.9035 12.0129 13.9343 12.0319C14.4374 12.3498 14.9404 12.6702 15.4435 12.9905C15.5146 13.0356 15.5835 13.0854 15.6594 13.1376ZM3.38457 4.62852C3.36322 4.62377 3.33949 4.61903 3.31339 4.61665C2.91237 4.57157 2.50899 4.52886 2.10797 4.4814C2.07001 4.47665 2.05102 4.48615 2.03204 4.51699C1.77814 4.88953 1.55272 5.27631 1.35815 5.68207C0.923913 6.58138 0.691373 7.53765 0.591712 8.52713C0.57273 8.72408 0.575102 8.92103 0.565611 9.11798C0.541882 9.56882 0.598831 10.0125 0.632051 10.461C0.634424 10.4966 0.651034 10.5108 0.689 10.5132C0.793406 10.5203 0.897812 10.5275 1.00222 10.5393C1.31781 10.5773 1.6334 10.6176 1.94899 10.6556C1.96323 10.658 1.98933 10.6437 1.99645 10.6295C2.03916 10.5346 2.07475 10.4373 2.11746 10.3424C2.26221 10.0292 2.39746 9.70645 2.56356 9.40272C2.84119 8.89018 3.13542 8.38951 3.48898 7.92443C3.49847 7.91019 3.50559 7.88883 3.50322 7.86985C3.48423 7.67053 3.4605 7.47358 3.44627 7.27663C3.42491 6.97765 3.39881 6.67867 3.39406 6.37732C3.38457 5.96681 3.39169 5.55631 3.39406 5.14343C3.38457 4.97496 3.38457 4.80411 3.38457 4.62852ZM12.8642 3.03633C12.8737 2.9604 12.876 2.89633 12.8879 2.83226C12.9448 2.53091 13.0042 2.22955 13.0659 1.9282C13.0753 1.88549 13.0682 1.86176 13.0279 1.83803C12.5794 1.58651 12.112 1.3777 11.6232 1.22109C11.0133 1.02651 10.3916 0.886513 9.74622 0.862784C9.34283 0.846174 8.93707 0.803463 8.53369 0.841428C8.41267 0.853293 8.28691 0.846174 8.16826 0.865157C7.85742 0.910241 7.54895 0.960072 7.24047 1.01227C7.10997 1.03363 6.98421 1.0716 6.85607 1.10007C6.81811 1.10956 6.80387 1.13329 6.8015 1.17126C6.78251 1.37532 6.76116 1.57939 6.73743 1.78346C6.72082 1.92345 6.70658 2.06583 6.67811 2.20582C6.65675 2.31498 6.65912 2.33159 6.76353 2.36243C6.76827 2.36481 6.77539 2.36718 6.78014 2.36955C7.69844 2.64006 8.61436 2.92006 9.50893 3.26175C9.58724 3.29022 9.66317 3.32344 9.76046 3.30446C9.98588 3.26175 10.2184 3.24039 10.4462 3.21666C10.8496 3.17395 11.2506 3.12887 11.654 3.09565C11.9838 3.06717 12.3137 3.05531 12.6411 3.0387C12.7147 3.03395 12.7882 3.03633 12.8642 3.03633ZM4.3527 16.0301C4.34558 15.9898 4.34084 15.9566 4.33372 15.9233C4.26728 15.584 4.19372 15.2471 4.13677 14.9078C4.09169 14.6325 4.06558 14.3525 4.03236 14.0749C4.02287 13.9966 4.01338 13.9183 4.01101 13.84C4.00864 13.802 4.01575 13.7688 3.98728 13.7332C3.81406 13.5339 3.63847 13.3346 3.47237 13.1281C3.14017 12.7129 2.83407 12.2786 2.56119 11.823C2.38322 11.5288 2.21475 11.2275 2.04865 10.9261C2.01068 10.8573 1.96797 10.8264 1.8873 10.8169C1.58832 10.7837 1.28933 10.741 0.987981 10.7054C0.878829 10.6936 0.769677 10.6888 0.65578 10.6793C0.658153 10.7149 0.662898 10.7458 0.665271 10.779C0.665271 10.7885 0.670017 10.798 0.670017 10.8075C0.819507 11.6617 1.10662 12.4661 1.51001 13.2325C1.85408 13.8851 2.26695 14.4901 2.76288 15.0359C3.09271 15.3989 3.45576 15.724 3.8544 16.0088C3.86864 16.0183 3.88525 16.0301 3.90186 16.0301C4.0466 16.0301 4.19609 16.0301 4.3527 16.0301ZM17.0428 6.68104C16.376 4.60479 15.0638 3.06717 13.2225 1.9543C13.1631 2.29362 13.1038 2.62345 13.0492 2.95328C13.0445 2.97463 13.0564 3.00785 13.073 3.02446C13.1299 3.08853 13.1892 3.14785 13.2509 3.20717C13.512 3.44683 13.7397 3.71971 13.9628 3.99259C14.2499 4.3414 14.5038 4.71157 14.7435 5.0936C14.8479 5.2597 14.9499 5.43055 15.0472 5.59902C15.0875 5.66783 15.1184 5.7319 15.1967 5.77698C15.6997 6.06173 16.1838 6.37969 16.6536 6.71664C16.6631 6.72376 16.675 6.7285 16.6845 6.7285C16.8055 6.71426 16.9194 6.69765 17.0428 6.68104ZM13.1204 16.6969C12.8998 16.7206 12.6957 16.7467 12.4892 16.7633C12.233 16.7823 11.9767 16.7966 11.7204 16.8061C11.5354 16.8132 11.3479 16.8203 11.1628 16.8061C11.0608 16.7989 10.9825 16.825 10.9018 16.8725C10.8804 16.8844 10.8615 16.8962 10.8401 16.9057C10.6052 17.0172 10.3679 17.124 10.1354 17.2403C9.77944 17.4159 9.40927 17.5488 9.03199 17.6603C8.91097 17.6959 8.79233 17.7291 8.67131 17.7647C10.2516 17.8288 11.7299 17.4705 13.1204 16.6969ZM17.1685 11.5407C17.1638 11.5383 17.159 11.5335 17.1543 11.5312C17.114 11.5858 17.0712 11.6403 17.0333 11.6973C16.7296 12.1552 16.3879 12.5847 16.0224 12.9976C15.8635 13.1756 15.7116 13.3535 15.6641 13.5979C15.6641 13.6003 15.6618 13.6003 15.6618 13.6027C15.4411 14.1745 15.1919 14.7345 14.9309 15.2898C14.9214 15.3088 14.9143 15.3278 14.9048 15.3467C14.9096 15.3491 14.9143 15.3515 14.9191 15.3539C16.0153 14.2861 16.758 13.0142 17.1685 11.5407Z" fill="black">
	</path>
	<path d="M6.84929 9.00209C6.81844 8.92142 6.89912 8.87871 6.96318 8.82888C7.37843 8.49905 7.78419 8.1621 8.21131 7.84651C8.68825 7.49295 9.18181 7.16075 9.66825 6.81906C9.72282 6.78109 9.77503 6.76923 9.84147 6.80008C10.2994 7.00414 10.7598 7.20584 11.2201 7.40753C11.8109 7.6638 12.4018 7.92244 12.995 8.17396C13.0804 8.20956 13.1184 8.25227 13.1303 8.34481C13.1516 8.51803 13.1919 8.68888 13.218 8.86209C13.2726 9.20379 13.3296 9.54785 13.377 9.89192C13.4221 10.2217 13.4601 10.5539 13.4909 10.8861C13.5218 11.2017 13.5408 11.5197 13.5621 11.8377C13.5645 11.8566 13.5526 11.8851 13.536 11.897C13.1682 12.1746 12.7981 12.4499 12.4279 12.7275C12.0126 13.036 11.5998 13.3468 11.1821 13.6529C11.035 13.7621 10.8784 13.8593 10.7242 13.959C10.7076 13.9709 10.6767 13.9709 10.6554 13.9638C10.0408 13.7882 9.4713 13.501 8.88283 13.259C8.37741 13.0502 7.87199 12.8461 7.36657 12.6397C7.31199 12.6183 7.25504 12.597 7.20284 12.5709C7.18386 12.5614 7.1625 12.5377 7.16013 12.5163C7.12216 12.1794 7.0842 11.8424 7.04861 11.5031C7.01539 11.1875 6.98454 10.8695 6.95844 10.5539C6.93471 10.2763 6.91573 9.9987 6.89437 9.72107C6.88488 9.4909 6.86827 9.26074 6.84929 9.00209Z" fill="white">
	</path>
	<path d="M3.55577 5.79399C3.55577 5.40958 3.55577 5.02281 3.55814 4.6384C3.55814 4.6123 3.57475 4.58145 3.59374 4.56484C3.89034 4.26586 4.2178 4.00722 4.55 3.75095C5.00796 3.39977 5.47542 3.06282 5.98084 2.78282C6.1327 2.6974 6.28931 2.62384 6.43405 2.52656C6.5171 2.46961 6.58117 2.47435 6.66659 2.50045C7.04862 2.62859 7.43065 2.76147 7.8198 2.87062C8.3798 3.02723 8.92081 3.24316 9.46657 3.44248C9.55437 3.47333 9.54962 3.47333 9.55437 3.56587C9.56623 3.81027 9.58284 4.05468 9.59471 4.29908C9.60894 4.54112 9.62081 4.78552 9.63504 5.02755C9.65403 5.34789 9.67064 5.66585 9.68962 5.98619C9.70148 6.17602 9.71335 6.36585 9.72759 6.5533C9.72996 6.59127 9.71098 6.60788 9.6825 6.62923C9.2364 6.94245 8.78793 7.25093 8.34421 7.56889C7.81743 7.94617 7.30252 8.34007 6.81134 8.76244C6.74727 8.81702 6.69032 8.83363 6.60727 8.80515C5.73406 8.51566 4.86084 8.22855 3.98763 7.93906C3.89034 7.90584 3.79543 7.86787 3.69814 7.83228C3.6578 7.81804 3.64357 7.78957 3.63882 7.7516C3.58187 7.23669 3.54865 6.72178 3.5534 6.20212C3.55577 6.06687 3.55577 5.92924 3.55577 5.79399Z" fill="white">
	</path>
	<path d="M10.8968 16.5617C10.9039 16.6969 10.9039 16.6946 10.7806 16.7539C10.6785 16.8013 10.5812 16.8559 10.4816 16.9081C10.0307 17.1549 9.55616 17.3352 9.0626 17.4752C8.74226 17.5654 8.41955 17.6461 8.09685 17.7244C8.03515 17.7386 7.96397 17.7196 7.8999 17.7125C7.1738 17.6176 6.47143 17.4278 5.79042 17.1549C5.76669 17.1454 5.74296 17.1264 5.72398 17.1074C5.39653 16.7966 5.06907 16.4881 4.74399 16.1773C4.67992 16.1156 4.60874 16.0563 4.55653 15.9851C4.52331 15.9376 4.50908 15.8736 4.49721 15.8142C4.45213 15.5912 4.40704 15.3705 4.37145 15.1475C4.32399 14.8485 4.28365 14.5471 4.24332 14.2458C4.22433 14.1081 4.21247 13.9705 4.19586 13.8353C4.18874 13.7783 4.21484 13.757 4.26467 13.7403C4.93856 13.5197 5.61246 13.3014 6.28398 13.0759C6.54025 12.9905 6.78702 12.8837 7.03855 12.7841C7.06228 12.7746 7.08363 12.7604 7.10262 12.7414C7.15007 12.6939 7.19516 12.7034 7.24973 12.7271C8.19651 13.1258 9.14565 13.5244 10.0948 13.9207C10.2775 13.9966 10.4697 14.0559 10.6572 14.12C10.6975 14.1342 10.7094 14.1532 10.7117 14.1936C10.7236 14.3478 10.7426 14.4997 10.7592 14.6515C10.7829 14.8769 10.809 15.1024 10.8256 15.3302C10.8517 15.7074 10.8731 16.0824 10.8945 16.4596C10.8992 16.4929 10.8968 16.5261 10.8968 16.5617Z" fill="white">
	</path>
	<path d="M15.659 13.1374C15.5831 13.0852 15.5143 13.0354 15.4431 12.9903C14.94 12.67 14.437 12.352 13.9339 12.0317C13.9031 12.0127 13.8722 11.9913 13.839 11.9819C13.7465 11.9558 13.7275 11.8893 13.7228 11.8063C13.7038 11.4812 13.6895 11.1561 13.6611 10.831C13.635 10.5131 13.5994 10.1951 13.559 9.87712C13.5187 9.56391 13.4736 9.25306 13.4261 8.93984C13.3953 8.7429 13.3645 8.54595 13.3265 8.35137C13.3051 8.25171 13.3265 8.17815 13.3906 8.0951C13.9126 7.43308 14.4322 6.76867 14.9495 6.1019C14.9875 6.05444 15.016 5.99987 15.0468 5.94766C15.0729 5.90732 15.1014 5.89783 15.1488 5.92631C15.4716 6.12563 15.7943 6.3202 16.117 6.51715C16.1905 6.56223 16.2617 6.60732 16.3305 6.65478C16.4516 6.7402 16.5726 6.82562 16.6912 6.91342C16.7102 6.92765 16.7244 6.95613 16.7339 6.98223C16.9997 7.64189 17.2322 8.31341 17.441 8.99442C17.4671 9.08221 17.4743 9.16526 17.4743 9.25543C17.4648 9.83204 17.4268 10.4039 17.3082 10.9686C17.301 11.0066 17.2844 11.0422 17.2631 11.0754C17.1587 11.2439 17.059 11.4147 16.9427 11.5737C16.7648 11.8181 16.5797 12.0578 16.3922 12.2927C16.2119 12.5181 16.0268 12.7388 15.8417 12.9595C15.7895 13.0235 15.7231 13.0757 15.659 13.1374Z" fill="white">
	</path>
	<path d="M3.38445 4.62849C3.38445 4.80409 3.38445 4.97256 3.38445 5.14341C3.38445 5.55391 3.37733 5.96679 3.38445 6.37729C3.39157 6.67628 3.4153 6.97763 3.43665 7.27661C3.45089 7.47593 3.47462 7.67288 3.4936 7.86983C3.49598 7.88644 3.48886 7.91016 3.47937 7.9244C3.12581 8.38948 2.83157 8.89253 2.55395 9.4027C2.39022 9.70642 2.25497 10.0268 2.10785 10.3423C2.06514 10.4373 2.02955 10.5346 1.98683 10.6295C1.97972 10.6437 1.95599 10.6579 1.93938 10.6556C1.62379 10.6176 1.3082 10.5773 0.992605 10.5393C0.888199 10.5274 0.783793 10.5179 0.679387 10.5132C0.641421 10.5108 0.627184 10.499 0.622438 10.461C0.589218 10.0149 0.534642 9.5688 0.555998 9.11795C0.56549 8.921 0.563117 8.72168 0.5821 8.52711C0.68176 7.53762 0.914301 6.58373 1.34853 5.68205C1.54548 5.27629 1.76853 4.88714 2.02243 4.51697C2.04378 4.48612 2.06277 4.479 2.09836 4.48138C2.49937 4.52883 2.90276 4.57155 3.30377 4.61663C3.33937 4.619 3.3631 4.62612 3.38445 4.62849Z" fill="white">
	</path>
	<path d="M12.8639 3.0365C12.7879 3.0365 12.712 3.03412 12.6384 3.0365C12.3086 3.05311 11.9788 3.06497 11.6513 3.09344C11.2479 3.12666 10.8469 3.17175 10.4435 3.21446C10.2134 3.23819 9.9832 3.25954 9.75778 3.30226C9.6605 3.32124 9.58456 3.28802 9.50626 3.25954C8.61169 2.91785 7.69576 2.63548 6.77747 2.36735C6.77272 2.36497 6.7656 2.3626 6.76086 2.36023C6.65645 2.32701 6.65408 2.3104 6.67543 2.20362C6.70153 2.06362 6.71814 1.92362 6.73475 1.78125C6.75848 1.57718 6.77747 1.37312 6.79882 1.16905C6.80357 1.13109 6.81543 1.10498 6.8534 1.09787C6.98153 1.06702 7.10967 1.03143 7.2378 1.01007C7.54627 0.957867 7.85712 0.908037 8.16559 0.862953C8.28661 0.846343 8.41 0.851088 8.53101 0.839224C8.93677 0.801258 9.34016 0.846343 9.74355 0.86058C10.3866 0.884308 11.0083 1.02431 11.6205 1.21888C12.1093 1.37549 12.5767 1.5843 13.0252 1.83583C13.0656 1.85956 13.0727 1.88091 13.0632 1.926C13.0015 2.22735 12.9445 2.5287 12.8852 2.83006C12.8781 2.8965 12.8734 2.96294 12.8639 3.0365Z" fill="white">
	</path>
	<path d="M4.35283 16.03C4.19622 16.03 4.0491 16.03 3.89961 16.03C3.883 16.03 3.86639 16.0205 3.85215 16.0086C3.45351 15.7239 3.09046 15.3988 2.76064 15.0357C2.26471 14.49 1.85183 13.8849 1.50776 13.2324C1.10438 12.4659 0.817262 11.6615 0.667771 10.8073C0.665398 10.7978 0.663025 10.7883 0.663025 10.7788C0.660653 10.748 0.65828 10.7171 0.653534 10.6792C0.765058 10.6887 0.876583 10.691 0.985735 10.7053C1.28472 10.7409 1.5837 10.7836 1.88505 10.8168C1.96573 10.8263 2.00844 10.8571 2.0464 10.9259C2.2125 11.2273 2.38098 11.5287 2.55894 11.8229C2.8342 12.2785 3.13792 12.7127 3.47012 13.128C3.63622 13.3344 3.81181 13.5337 3.98503 13.733C4.01588 13.7686 4.00876 13.8019 4.00876 13.8398C4.01114 13.9181 4.02063 13.9964 4.03012 14.0747C4.06334 14.3524 4.08944 14.6324 4.13452 14.9076C4.19147 15.2469 4.26503 15.5839 4.33147 15.9232C4.34096 15.9564 4.34571 15.9896 4.35283 16.03Z" fill="white">
	</path>
	<path d="M17.0429 6.68071C16.9195 6.69732 16.8033 6.71393 16.6894 6.72817C16.6799 6.73054 16.6656 6.72342 16.6585 6.7163C16.1863 6.37936 15.7046 6.06377 15.2016 5.77665C15.1233 5.73157 15.09 5.6675 15.0521 5.59869C14.9524 5.42784 14.8528 5.25937 14.7484 5.09327C14.5087 4.71124 14.2548 4.34107 13.9677 3.99226C13.7423 3.71938 13.5168 3.4465 13.2558 3.20684C13.1941 3.14989 13.1348 3.0882 13.0779 3.02413C13.0613 3.00752 13.0518 2.9743 13.0541 2.95294C13.1087 2.62312 13.168 2.29329 13.2274 1.95397C15.0639 3.06684 16.3761 4.60446 17.0429 6.68071Z" fill="white">
	</path>
	<path d="M13.1207 16.6965C11.7278 17.4701 10.2519 17.8284 8.67157 17.7643C8.79259 17.7287 8.91123 17.6955 9.03224 17.6599C9.40953 17.5484 9.78207 17.4155 10.1356 17.2399C10.3682 17.126 10.6055 17.0169 10.8404 16.9054C10.8617 16.8959 10.8831 16.884 10.9021 16.8721C10.9827 16.8247 11.061 16.7986 11.1631 16.8057C11.3482 16.8199 11.5356 16.8128 11.7207 16.8057C11.977 16.7962 12.2332 16.782 12.4895 16.763C12.6959 16.7464 12.9024 16.7203 13.1207 16.6965Z" fill="white">
	</path>
	<path d="M17.1688 11.5405C16.7583 13.014 16.0156 14.2859 14.9217 15.3537C14.917 15.3513 14.9122 15.3489 14.9075 15.3465C14.917 15.3276 14.9241 15.3086 14.9336 15.2896C15.1946 14.7343 15.4414 14.1744 15.6644 13.6025C15.6644 13.6001 15.6668 13.6001 15.6668 13.5977C15.7142 13.3533 15.8661 13.1754 16.0251 12.9974C16.3905 12.5869 16.7322 12.1574 17.0359 11.6971C17.0739 11.6401 17.1166 11.5856 17.1569 11.531C17.1593 11.5357 17.1641 11.5381 17.1688 11.5405Z" fill="white">
	</path>
</svg>
