<svg width="20" height="20" viewBox="0 0 20 20" fill="none" xmlns="http://www.w3.org/2000/svg">
	<path d="M9.5403 19.3516C9.28848 19.3516 9.03913 19.3516 8.78731 19.3516C8.74781 19.3516 8.73546 19.3442 8.73793 19.3021C8.78237 18.8565 8.7725 18.4135 8.75275 17.9679C8.73546 17.5595 8.69596 17.1535 8.6219 16.7526C8.49599 16.0743 8.30836 15.4109 8.06395 14.7624C7.68128 13.7476 7.15542 12.8119 6.4839 11.9579C6.13086 11.5074 5.74326 11.0891 5.3285 10.698C4.65698 10.0668 3.91387 9.53709 3.09916 9.10639C2.31902 8.69549 1.50924 8.3638 0.652565 8.15835C0.548875 8.1336 0.445185 8.11132 0.341495 8.08904C0.306931 8.08162 0.294587 8.07419 0.301994 8.02964C0.363714 7.74498 0.418028 7.45785 0.49703 7.17566C0.679722 6.51724 0.93401 5.88604 1.26977 5.28949C1.51418 4.85137 1.78081 4.42809 2.09188 4.03452C2.43505 3.59887 2.81031 3.19788 3.23001 2.83648C3.64724 2.47509 4.09162 2.15578 4.56811 1.87607C5.41244 1.38349 6.30862 1.02953 7.26405 0.829027C7.68128 0.742392 8.10592 0.687936 8.53302 0.660707C9.02678 0.631004 9.52055 0.650806 10.0143 0.660707C10.0513 0.660707 10.0587 0.675559 10.0563 0.707738C10.0513 0.801799 10.0513 0.898335 10.0464 0.992396C10.0316 1.30428 10.0365 1.61617 10.0464 1.92558C10.0587 2.28697 10.0958 2.64589 10.1452 3.00233C10.2143 3.49244 10.318 3.97512 10.4562 4.45037C10.6636 5.16821 10.9549 5.84891 11.3055 6.50734C11.6462 7.14844 12.0437 7.74993 12.5053 8.30935C13.004 8.91331 13.5669 9.4554 14.1866 9.93313C14.9124 10.495 15.6951 10.9629 16.5295 11.344C17.122 11.6139 17.7392 11.8144 18.3688 11.9752C18.5021 12.0099 18.4996 12.0099 18.4749 12.1411C18.3169 12.9802 18.038 13.7797 17.6479 14.5372C17.3343 15.1411 16.9517 15.6981 16.5122 16.2179C15.9074 16.9308 15.2087 17.5347 14.4162 18.0248C13.5669 18.5521 12.6584 18.9358 11.6832 19.1536C11.2586 19.2476 10.8265 19.3095 10.392 19.3417C10.1081 19.3615 9.82421 19.3665 9.5403 19.3665C9.5403 19.3615 9.5403 19.3566 9.5403 19.3516Z" fill="#7FBA42">
	</path>
	<path d="M0.00561523 10.3862C0.338905 10.4729 0.659851 10.5694 0.975859 10.6882C1.85969 11.0174 2.65712 11.4952 3.38048 12.0967C3.95819 12.5769 4.45442 13.1338 4.8914 13.7452C5.42219 14.4903 5.8172 15.3046 6.08137 16.1809C6.22456 16.6561 6.32331 17.1388 6.38009 17.6289C6.41713 17.9458 6.43194 18.2626 6.43935 18.5794C6.44181 18.6686 6.44181 18.7577 6.41713 18.8443C6.39244 18.9285 6.37269 18.9359 6.29122 18.9062C5.56785 18.6413 4.88893 18.2898 4.25198 17.8567C3.86684 17.5943 3.50393 17.3047 3.15829 16.9928C2.71884 16.5943 2.32136 16.1586 1.96339 15.6858C1.64244 15.2626 1.36099 14.817 1.11411 14.3467C0.763541 13.6809 0.489503 12.9853 0.299404 12.2576C0.178432 11.7848 0.0895549 11.3046 0.0401786 10.8194C0.0253657 10.6759 0.0179593 10.5323 0.00561523 10.3862Z" fill="#7FBA42">
	</path>
	<path d="M19.0056 9.63093C18.3218 9.45518 17.6725 9.21013 17.0553 8.87596C16.5097 8.5814 16.006 8.22744 15.5369 7.82397C14.8481 7.23237 14.2704 6.54672 13.8014 5.77196C13.3718 5.05907 13.0484 4.29916 12.8385 3.49222C12.7151 3.01944 12.6336 2.53923 12.599 2.0516C12.5793 1.78922 12.5694 1.52437 12.5768 1.25951C12.5768 1.24218 12.5793 1.22238 12.5818 1.20505C12.604 1.08624 12.6262 1.07386 12.7373 1.11594C13.3027 1.32634 13.8433 1.58872 14.3593 1.90308C14.8728 2.21745 15.3567 2.57389 15.806 2.97241C16.127 3.25707 16.4282 3.56648 16.7072 3.89569C17.4429 4.76699 18.0082 5.73978 18.423 6.80167C18.6501 7.38337 18.8032 7.98486 18.8995 8.60121C18.9513 8.93289 18.9809 9.26706 19.0056 9.60122C19.0056 9.61112 19.0056 9.62102 19.0056 9.63093Z" fill="#7FBA42">
	</path>
</svg>
